<svg version="1.2" xmlns="http://www.w3.org/2000/svg" viewBox="0 0 1530 1530" width="1530" height="1530">
	<title>logo_xtb</title>
	<style>
		.s0 { fill: #ffffff } 
		.s1 { fill: #000000 } 
		.s2 { fill: #fe0103 } 
	</style>
	<path class="s0" d="m1478.8 51.1v1427.7h-1427.7v-1427.7z"/>
	<path class="s1" d=""/>
	<path fill-rule="evenodd" class="s2" d="m0 1529.9v-1529.9h1529.9v1529.9zm1042.6-444.7l400 74.4c-119.1-159.5-263.8-302.1-425.5-419.1 136.1-106.4 257.4-232 359.5-370.3l-400 76.6c-8.5 6.4-14.9 10.7-21.3 17.1q-79.7 70.2-165.9 134c-53.2-29.8-104.3-55.3-157.5-80.8l-474.5 95.7c91.5 25.5 183 53.2 272.4 89.4 38.3 14.9 72.3 29.8 108.5 46.8-57.4 29.8-114.9 57.4-174.5 80.8-89.3 36.2-178.7 66-272.3 89.4l474.5 95.8c78.7-36.2 153.2-76.7 227.6-121.3 78.8 51 155.4 110.6 225.6 174.4 8.5 6.4 14.9 10.7 21.3 17.1z"/>
</svg>